<svg width="75" height="75" viewBox="0 0 75 75" fill="none" xmlns="http://www.w3.org/2000/svg">
<circle opacity="0.15" cx="37.5" cy="37.5" r="37.5" fill="#FA5652"/>
<path d="M22.048 55.44C20.024 55.44 18.176 55.0587 16.504 54.296C14.832 53.5333 13.4093 52.4627 12.236 51.084C11.0627 49.7053 10.1387 48.0333 9.464 46.068C8.81867 44.1027 8.496 41.932 8.496 39.556C8.496 37.2093 8.81867 35.0533 9.464 33.088C10.1387 31.1227 11.0627 29.4507 12.236 28.072C13.4387 26.6933 14.876 25.6227 16.548 24.86C18.22 24.0973 20.0533 23.716 22.048 23.716C24.072 23.716 25.92 24.0973 27.592 24.86C29.264 25.6227 30.6867 26.6933 31.86 28.072C33.0333 29.4507 33.9427 31.1227 34.588 33.088C35.2627 35.0533 35.6 37.2093 35.6 39.556C35.6 41.932 35.2773 44.1027 34.632 46.068C33.9867 48.0333 33.0627 49.7053 31.86 51.084C30.6867 52.4627 29.264 53.5333 27.592 54.296C25.92 55.0587 24.072 55.44 22.048 55.44ZM22.048 50.204C24.424 50.204 26.3013 49.2507 27.68 47.344C29.0587 45.4373 29.748 42.8413 29.748 39.556C29.748 36.3293 29.044 33.7627 27.636 31.856C26.2573 29.92 24.3947 28.952 22.048 28.952C19.7013 28.952 17.8387 29.92 16.46 31.856C15.0813 33.7627 14.392 36.3293 14.392 39.556C14.392 42.8413 15.0813 45.4373 16.46 47.344C17.8387 49.2507 19.7013 50.204 22.048 50.204ZM61.7171 24.2V42.724H65.5011V47.784H61.7171V55H55.6891V47.784H38.3091V42.944L54.7651 24.2H61.7171ZM45.2611 42.724H55.6891V30.888L45.2611 42.724Z" fill="#FA5652"/>
</svg>
